<svg width="205" height="34" viewBox="0 0 205 34" fill="none" xmlns="http://www.w3.org/2000/svg">
<g clip-path="url(#clip0_505_842)">
<path d="M64.4907 18.7006H70.2569C69.6783 22.707 66.3783 25.4926 62.178 25.4926C57.377 25.4926 53.891 21.9276 53.891 17.0162C53.891 12.1049 57.3313 8.50737 62.0717 8.50737C64.8537 8.50737 67.3332 9.78576 68.8755 12.0148L68.9434 12.1123L71.0184 11.0774L70.9313 10.9475C68.9714 8.01875 65.6596 6.26944 62.0732 6.26944C56.0429 6.26944 51.4957 10.8885 51.4957 17.0148C51.4957 23.141 56.0886 27.7261 62.178 27.7261C68.2674 27.7261 72.6168 23.2222 72.6168 17.4724V16.5232H64.4907V18.6991V18.7006Z" fill="#0033A1"/>
<path d="M81.7036 12.7972C77.6568 12.7972 74.3642 16.0907 74.3642 20.1399C74.3642 24.4652 77.5432 27.7261 81.7583 27.7261C84.9727 27.7261 87.6278 25.81 88.5221 22.8428L88.5767 22.6642H86.1799L86.1445 22.7469C85.3402 24.6054 83.364 25.4365 81.7597 25.4365C78.9541 25.4365 77.0104 23.5765 76.7713 20.6831H88.8025V20.5444C88.8025 16.0537 85.8184 12.7943 81.7066 12.7943L81.7036 12.7972ZM76.9632 18.5618C77.5668 16.4125 79.3688 15.0854 81.7036 15.0854C84.0385 15.0854 85.5571 16.318 86.0722 18.5618H76.9632Z" fill="#0033A1"/>
<path d="M93.5533 14.5539V13.1796H91.1565V27.3216H93.5533V17.4414C94.3001 16.4287 95.9103 15.3599 98.2259 15.3599H98.3646V12.8002H98.2259C96.0623 12.8002 94.52 13.7095 93.5533 14.5554V14.5539Z" fill="#0033A1"/>
<path d="M105.877 12.7972C101.83 12.7972 98.5358 16.0907 98.5358 20.1399C98.5358 24.4652 101.715 27.7261 105.931 27.7261C109.146 27.7261 111.801 25.81 112.695 22.8428L112.75 22.6642H110.353L110.318 22.7469C109.513 24.6054 107.536 25.4365 105.933 25.4365C103.127 25.4365 101.184 23.5765 100.944 20.6831H112.976V20.5444C112.976 16.0537 109.991 12.7943 105.88 12.7943L105.877 12.7972ZM101.136 18.5618C101.74 16.4125 103.542 15.0854 105.877 15.0854C108.212 15.0854 109.73 16.318 110.245 18.5618H101.136Z" fill="#0033A1"/>
<path d="M122.215 12.7972C120.446 12.7972 118.637 13.6357 117.406 15.0056V13.1781H115.009V27.3202H117.406V17.6525C118.172 16.4597 119.822 15.0854 121.998 15.0854C124.173 15.0854 125.611 16.4878 125.611 18.8349V27.3187H128.006V18.6445C128.006 15.0927 125.733 12.7972 122.215 12.7972Z" fill="#0033A1"/>
<path d="M137.572 15.0854C139.591 15.0854 141.325 16.1276 142.094 17.806L142.131 17.8857H144.665L144.608 17.7056C143.641 14.7237 140.878 12.7972 137.572 12.7972C133.257 12.7972 129.879 16.0582 129.879 20.2211C129.879 24.384 133.258 27.7261 137.572 27.7261C140.869 27.7261 143.697 25.7642 144.608 22.8443L144.664 22.6657H142.131L142.094 22.7454C141.321 24.4312 139.63 25.438 137.572 25.438C134.584 25.438 132.329 23.1942 132.329 20.2211C132.329 17.248 134.584 15.0839 137.572 15.0839V15.0854Z" fill="#0033A1"/>
<path d="M149.046 13.1781H146.649V27.3202H149.046V13.1781Z" fill="#0033A1"/>
<path d="M149.046 6.65326H146.649V10.4633H149.046V6.65326Z" fill="#0033A1"/>
<path d="M163.148 15.0721C161.903 13.6018 160.219 12.7987 158.366 12.7987C154.438 12.7987 151.242 16.129 151.242 20.2226C151.242 24.3161 154.437 27.7276 158.366 27.7276C160.215 27.7276 161.899 26.9068 163.148 25.4055V27.3202H165.543V13.1781H163.148V15.0706V15.0721ZM163.148 17.9728V22.4693C162.104 24.3308 160.318 25.4395 158.366 25.4395C155.702 25.4395 153.693 23.1956 153.693 20.2226C153.693 17.2495 155.702 15.0854 158.366 15.0854C160.312 15.0854 162.185 16.2176 163.148 17.9728Z" fill="#0033A1"/>
<path d="M171.061 6.65326H168.666V27.3187H171.061V6.65326Z" fill="#0033A1"/>
<path d="M185.502 15.0721C184.258 13.6018 182.574 12.7987 180.721 12.7987C176.793 12.7987 173.597 16.129 173.597 20.2226C173.597 24.3161 176.792 27.7276 180.721 27.7276C182.57 27.7276 184.254 26.9068 185.502 25.4055V27.3202H187.898V13.1781H185.502V15.0706V15.0721ZM185.502 17.9728V22.4693C184.459 24.3308 182.673 25.4395 180.721 25.4395C178.057 25.4395 176.047 23.1956 176.047 20.2226C176.047 17.2495 178.055 15.0854 180.721 15.0854C182.667 15.0854 184.54 16.2176 185.502 17.9728Z" fill="#0033A1"/>
<path d="M197.876 12.7972C196.022 12.7972 194.338 13.6018 193.094 15.0706V6.65326H190.697V27.3187H193.094V25.404C194.343 26.9053 196.025 27.7261 197.876 27.7261C201.805 27.7261 205 24.3589 205 20.2211C205 16.0833 201.805 12.7972 197.876 12.7972ZM202.549 20.2226C202.549 23.1971 200.54 25.4395 197.875 25.4395C195.92 25.4395 194.136 24.3308 193.093 22.4693V17.9728C194.055 16.2176 195.928 15.0854 197.875 15.0854C200.538 15.0854 202.549 17.2938 202.549 20.2226Z" fill="#0033A1"/>
<path d="M38.7827 15.9637H33.6659C32.5885 15.9637 31.7162 16.8376 31.7162 17.9138V23.3447C31.7399 23.9278 31.4491 24.8387 30.2522 24.9818H10.7575L10.762 24.9774C9.81742 24.9774 9.02341 24.5109 9.02341 23.2384L9.01603 23.2458V10.4973C9.03079 9.85516 9.66394 9.01962 10.5435 9.01962H28.9977C30.0736 9.01962 30.9473 8.14719 30.9473 7.06955V1.95007C30.9473 0.872438 30.0736 0 28.9977 0H10.9656C9.88827 0 9.01603 0.873915 9.01603 1.95007V7.60985C9.01603 8.09847 8.50243 9.02701 7.45457 9.01667L1.94961 9.01962C0.873709 9.01962 0 9.89206 0 10.9697V23.0318C0 24.1094 0.873709 24.9818 1.94961 24.9818H7.4531C8.18808 24.9818 9.01603 25.5723 9.01603 26.5452V32.0499C9.01603 33.1276 9.88974 34 10.9656 34H29.7652C30.8425 34 31.7148 33.1276 31.7148 32.0499V26.5319C31.7148 25.9517 32.2092 24.9863 33.2821 24.9863L33.3987 24.9818H38.7827C39.8586 24.9818 40.7323 24.1094 40.7323 23.0318V17.9138C40.7323 16.8361 39.8586 15.9637 38.7827 15.9637Z" fill="#2A56FB"/>
</g>
<defs>
<clipPath id="clip0_505_842">
<rect width="205" height="34" fill="white"/>
</clipPath>
</defs>
</svg>
