<?xml version="1.0" standalone="no"?>
<!DOCTYPE svg PUBLIC "-//W3C//DTD SVG 20010904//EN"
 "http://www.w3.org/TR/2001/REC-SVG-20010904/DTD/svg10.dtd">
<svg version="1.0" xmlns="http://www.w3.org/2000/svg"
 width="106.000000pt" height="100.000000pt" viewBox="0 0 106.000000 100.000000"
 preserveAspectRatio="xMidYMid meet">

<g transform="translate(0.000000,100.000000) scale(0.100000,-0.100000)"
fill="#000000" stroke="none">
<path d="M305 838 c-3 -13 -6 -52 -7 -88 l-3 -65 -83 -5 c-59 -4 -86 -9 -92
-20 -13 -20 -13 -266 0 -291 9 -16 22 -19 83 -19 44 0 78 -5 85 -12 7 -7 12
-41 12 -84 0 -49 4 -75 14 -83 9 -8 79 -11 232 -9 l219 3 5 83 c4 59 9 86 20
92 8 5 44 10 80 10 36 0 71 4 78 9 9 5 12 30 10 87 l-3 79 -73 3 c-46 2 -79
-2 -88 -9 -10 -8 -14 -34 -14 -85 0 -62 -3 -75 -19 -84 -12 -6 -104 -10 -229
-10 -166 0 -212 3 -221 14 -8 9 -11 63 -9 167 l3 154 218 5 c179 4 219 8 227
20 14 22 12 134 -2 148 -9 9 -73 12 -225 12 -212 0 -213 0 -218 -22z"/>
</g>
</svg>
